<?xml version="1.0" standalone="no"?>
<!DOCTYPE svg PUBLIC "-//W3C//DTD SVG 20010904//EN"
 "http://www.w3.org/TR/2001/REC-SVG-20010904/DTD/svg10.dtd">
<svg version="1.0" xmlns="http://www.w3.org/2000/svg"
 width="296.000000pt" height="171.000000pt" viewBox="0 0 296.000000 171.000000"
 preserveAspectRatio="xMidYMid meet">
<metadata>
Created by potrace 1.16, written by Peter Selinger 2001-2019
</metadata>
<g transform="translate(0.000000,171.000000) scale(0.100000,-0.100000)"
fill="#FFFFFF" stroke="none">
<path d="M2094 1329 c29 -23 33 -54 10 -87 -14 -20 -24 -22 -99 -22 -82 0 -83
0 -93 -27 -165 -458 -190 -520 -209 -528 -10 -3 -164 -6 -343 -5 -307 0 -326
1 -341 19 -21 25 -169 434 -169 466 0 14 9 34 20 45 11 11 16 20 11 20 -16 0
-41 -43 -41 -70 0 -14 37 -126 83 -250 68 -187 86 -227 107 -237 19 -9 107
-13 342 -13 315 0 317 0 342 23 18 16 51 93 119 282 l93 260 78 1 c73 0 80 2
102 28 13 15 24 38 24 52 0 25 -31 64 -51 64 -7 0 0 -9 15 -21z"/>
<path d="M1015 1071 c-7 -12 83 -261 101 -281 13 -13 13 -10 0 15 -8 17 -33
81 -55 143 l-40 112 344 0 345 0 -5 -27 -5 -28 14 30 c8 17 12 33 9 38 -6 11
-701 9 -708 -2z"/>
<path d="M1629 561 c-63 -64 -22 -181 65 -181 89 0 140 76 104 155 -27 60
-120 74 -169 26z m142 -10 c21 -22 29 -39 29 -66 0 -51 -44 -95 -95 -95 -83 0
-127 105 -69 164 38 38 95 36 135 -3z"/>
</g>
</svg>
